<svg width="27" height="26" viewBox="0 0 27 26" fill="none" xmlns="http://www.w3.org/2000/svg">
<path id="download_for_offline" d="M6.75 19.5H20.25V16.9H6.75V19.5ZM13.5 15.6L18.9 10.4L17.01 8.58L14.85 10.595V5.2H12.15V10.595L9.99 8.58L8.1 10.4L13.5 15.6ZM13.5 26C11.6325 26 9.8775 25.6587 8.235 24.9762C6.5925 24.2937 5.16375 23.3675 3.94875 22.1975C2.73375 21.0275 1.77188 19.6517 1.06313 18.07C0.354375 16.4883 0 14.7983 0 13C0 11.2017 0.354375 9.51167 1.06313 7.93C1.77188 6.34833 2.73375 4.9725 3.94875 3.8025C5.16375 2.6325 6.5925 1.70625 8.235 1.02375C9.8775 0.34125 11.6325 0 13.5 0C15.3675 0 17.1225 0.34125 18.765 1.02375C20.4075 1.70625 21.8363 2.6325 23.0513 3.8025C24.2663 4.9725 25.2281 6.34833 25.9369 7.93C26.6456 9.51167 27 11.2017 27 13C27 14.7983 26.6456 16.4883 25.9369 18.07C25.2281 19.6517 24.2663 21.0275 23.0513 22.1975C21.8363 23.3675 20.4075 24.2937 18.765 24.9762C17.1225 25.6587 15.3675 26 13.5 26ZM13.5 23.4C16.515 23.4 19.0688 22.3925 21.1613 20.3775C23.2537 18.3625 24.3 15.9033 24.3 13C24.3 10.0967 23.2537 7.6375 21.1613 5.6225C19.0688 3.6075 16.515 2.6 13.5 2.6C10.485 2.6 7.93125 3.6075 5.83875 5.6225C3.74625 7.6375 2.7 10.0967 2.7 13C2.7 15.9033 3.74625 18.3625 5.83875 20.3775C7.93125 22.3925 10.485 23.4 13.5 23.4Z" fill="#949692"/>
</svg>
