<svg width="27" height="22" viewBox="0 0 27 22" fill="none" xmlns="http://www.w3.org/2000/svg">
<g id="Group">
<path id="Vector" fill-rule="evenodd" clip-rule="evenodd" d="M19.1663 6.89367C18.167 7.00337 17.1882 7.03544 16.2443 7.23008C14.0515 7.68518 12.2481 8.78385 10.9867 10.6425C9.89256 12.2542 9.66871 14.0156 10.1604 15.8782C10.1872 15.9795 10.2186 16.0813 10.2677 16.2551C9.67614 16.2202 9.11537 16.2253 8.56888 16.1454C7.87563 16.043 7.19438 15.8653 6.50456 15.7365C6.37208 15.7123 6.20533 15.7308 6.08655 15.7927C5.24141 16.2236 4.40483 16.6709 3.56483 17.1125C3.45176 17.1715 3.33527 17.2255 3.15596 17.3122C3.19936 17.1507 3.22106 17.0438 3.25646 16.9409C3.48888 16.2529 3.71387 15.5632 3.96399 14.8831C4.04108 14.671 3.99939 14.5697 3.81552 14.4415C2.33023 13.4007 1.17444 12.0889 0.651362 10.3433C-0.238324 7.37466 0.665639 4.87917 2.93097 2.86072C5.12092 0.910351 7.77342 0.202659 10.6857 0.409679C12.8597 0.563256 14.8241 1.28783 16.5041 2.67508C17.7895 3.73662 18.6918 5.05468 19.1166 6.67034C19.1355 6.74178 19.1532 6.81435 19.1652 6.88805C19.1703 6.91449 19.1532 6.94543 19.1663 6.89367ZM14.3872 5.54579C14.4101 4.84148 13.827 4.23167 13.1064 4.20298C12.3498 4.17541 11.765 4.72165 11.7433 5.47997C11.7228 6.19442 12.2755 6.7986 12.9711 6.82504C13.7237 6.85204 14.3644 6.27318 14.3872 5.54579ZM7.86364 5.51485C7.87049 4.82573 7.25034 4.21085 6.53939 4.20073C5.79361 4.1906 5.21743 4.76553 5.21114 5.52554C5.20543 6.22648 5.79932 6.82335 6.5017 6.82223C7.25206 6.81998 7.85679 6.23998 7.86364 5.51485Z" fill="white"/>
<path id="Vector_2" fill-rule="evenodd" clip-rule="evenodd" d="M23.8778 21.5739C23.6334 21.4445 23.3901 21.3123 23.1451 21.1852C22.6203 20.9129 22.1155 20.5788 21.561 20.3864C20.978 20.1844 20.415 20.558 19.8353 20.6367C17.2188 20.9883 14.8267 20.4893 12.7681 18.8174C9.61652 16.2572 9.61995 11.9824 12.7647 9.41321C14.5772 7.932 16.6975 7.36101 19.025 7.51234C20.8786 7.63328 22.5587 8.23072 23.9851 9.42389C27.1036 12.0325 27.1036 16.1734 23.9971 18.7938C23.9817 18.8079 23.964 18.8214 23.9469 18.8343C23.7207 19.0278 23.3678 19.187 23.3033 19.4233C23.2371 19.6641 23.4529 19.9802 23.5443 20.2637C23.6785 20.6845 23.8138 21.1053 23.948 21.5272C23.9234 21.543 23.9006 21.5582 23.8778 21.5739ZM17.0195 11.9931C17.0195 11.4435 16.4925 10.927 15.9317 10.927C15.3441 10.927 14.8787 11.4063 14.8833 12.006C14.8878 12.5652 15.3521 13.0237 15.9191 13.0276C16.5222 13.0321 17.0195 12.5641 17.0195 11.9931ZM22.2583 12.0015C22.256 11.4367 21.7501 10.9304 21.1887 10.9304C20.6514 10.9304 20.086 11.4491 20.0803 11.9481C20.074 12.5106 20.6137 13.0361 21.1887 13.0271C21.7757 13.018 22.2594 12.5545 22.2583 12.0015Z" fill="white"/>
</g>
</svg>
