<svg width="28" height="28" viewBox="0 0 28 28" fill="none" xmlns="http://www.w3.org/2000/svg">
<g id="Group">
<g id="WA_Logo">
<g id="Group_2">
<path id="Vector" fill-rule="evenodd" clip-rule="evenodd" d="M23.5681 4.75053C21.0507 2.26653 17.6969 0.898531 14.1278 0.894531C6.77446 0.894531 0.785411 6.79053 0.785411 14.0385C0.785411 16.3545 1.39853 18.6185 2.56791 20.6105L0.675781 27.4225L7.74895 25.5945C9.69792 26.6425 11.8905 27.1945 14.1237 27.1945H14.1278C21.4811 27.1945 27.4661 21.2985 27.4702 14.0505C27.4742 10.5385 26.0896 7.23453 23.5681 4.75053ZM14.1318 24.9745H14.1278C12.1382 24.9745 10.1852 24.4465 8.48387 23.4505L8.07784 23.2145L3.87941 24.2985L5.00008 20.2665L4.73615 19.8545C3.62767 18.1145 3.03892 16.1065 3.03892 14.0385C3.04298 8.01453 8.01693 3.11453 14.1359 3.11453C17.1 3.11453 19.8813 4.25453 21.9765 6.31853C24.0716 8.38253 25.2248 11.1305 25.2207 14.0465C25.2207 20.0745 20.2427 24.9745 14.1318 24.9745ZM20.2143 16.7905C19.8813 16.6265 18.2409 15.8305 17.9364 15.7225C17.6319 15.6145 17.4086 15.5585 17.1852 15.8865C16.9619 16.2145 16.3244 16.9545 16.1295 17.1745C15.9347 17.3945 15.7398 17.4225 15.4068 17.2585C15.0739 17.0945 13.9979 16.7465 12.727 15.6265C11.7362 14.7545 11.0663 13.6785 10.8714 13.3505C10.6765 13.0225 10.8511 12.8425 11.0175 12.6785C11.1678 12.5305 11.3505 12.2945 11.517 12.1025C11.6834 11.9105 11.7403 11.7745 11.8499 11.5545C11.9595 11.3345 11.9068 11.1425 11.8215 10.9785C11.7362 10.8145 11.0703 9.19853 10.7942 8.53853C10.5222 7.89853 10.2501 7.98653 10.0431 7.97453C9.84816 7.96653 9.62484 7.96253 9.40558 7.96253C9.18226 7.96253 8.82088 8.04653 8.51636 8.37453C8.21183 8.70253 7.35103 9.49853 7.35103 11.1145C7.35103 12.7305 8.54478 14.2945 8.71125 14.5105C8.87773 14.7305 11.0622 18.0465 14.408 19.4705C15.2038 19.8105 15.825 20.0105 16.3082 20.1625C17.1081 20.4145 17.8349 20.3785 18.4074 20.2945C19.049 20.1985 20.3808 19.4985 20.6569 18.7345C20.933 17.9665 20.933 17.3105 20.8518 17.1745C20.7706 17.0385 20.5472 16.9585 20.2143 16.7905Z" fill="white"/>
</g>
</g>
</g>
</svg>
