<svg width="25" height="28" viewBox="0 0 25 28" fill="none" xmlns="http://www.w3.org/2000/svg">
<g id="Group 7">
<path id="Vector" d="M24.8637 8.23077V12.4784C24.6318 12.4784 24.3537 12.524 24.0755 12.524C21.9892 12.524 20.042 11.7476 18.5584 10.5144V19.5577C18.5584 21.3846 17.9557 23.1202 16.8893 24.4904C15.4057 26.4543 12.9949 27.7788 10.2595 27.7788C7.29232 27.7788 4.69602 26.2259 3.25879 23.9423C4.74238 25.3125 6.73597 26.1803 8.915 26.1803C11.604 26.1803 14.0149 24.9014 15.4985 22.8918C16.5184 21.5216 17.1675 19.8317 17.1675 17.9591V8.87019C18.6511 10.149 20.552 10.8798 22.6846 10.8798C22.9628 10.8798 23.1946 10.8798 23.4728 10.8341V8.09375C23.89 8.1851 24.2609 8.23077 24.6782 8.23077H24.8637Z" fill="#FF004F"/>
<path id="Vector_2" d="M11.4187 11.3821V16.0864C11.0941 15.9951 10.7232 15.9494 10.3987 15.9494C8.35877 15.9494 6.68972 17.6393 6.68972 19.6946C6.68972 20.1513 6.78245 20.5624 6.92153 20.9734C5.99429 20.2883 5.34521 19.1922 5.34521 17.959C5.34521 15.9037 7.01426 14.2138 9.0542 14.2138C9.4251 14.2138 9.74964 14.2595 10.0742 14.3508V11.3364C10.1669 11.3364 10.2596 11.3364 10.3524 11.3364C10.7232 11.3364 11.0941 11.3364 11.4187 11.3821Z" fill="#FF004F"/>
<path id="Vector_3" d="M19.254 4.851C18.4194 4.12023 17.8167 3.11542 17.4922 2.06494H18.6049C18.6049 2.29331 18.6049 2.476 18.6049 2.70436C18.6976 3.43513 18.9294 4.1659 19.254 4.851Z" fill="#FF004F"/>
<path id="Vector_4" d="M23.519 8.13946V10.8798C23.2872 10.9255 23.009 10.9255 22.7308 10.9255C20.6445 10.9255 18.6973 10.1491 17.2137 8.9159V17.9592C17.2137 19.7861 16.611 21.5217 15.5447 22.8918C14.0147 24.9015 11.6502 26.1803 8.96122 26.1803C6.78218 26.1803 4.7886 25.3125 3.30501 23.9423C2.51685 22.6635 2.05322 21.2019 2.05322 19.6034C2.05322 15.1731 5.62312 11.5649 10.0739 11.4279V14.4423C9.74937 14.351 9.37848 14.3053 9.05394 14.3053C7.014 14.3053 5.34495 15.9952 5.34495 18.0505C5.34495 19.2837 5.94766 20.4255 6.92127 21.0649C7.43126 22.4808 8.82213 23.5313 10.3984 23.5313C12.4384 23.5313 14.1074 21.8414 14.1074 19.7861V2.06494H17.4919C17.8164 3.16109 18.4191 4.12023 19.2537 4.851C20.0882 6.49523 21.6645 7.7284 23.519 8.13946Z" fill="white"/>
<path id="Vector_5" d="M10.0742 9.78373V11.3366C5.62342 11.4736 2.05352 15.0818 2.05352 19.5121C2.05352 21.1106 2.51714 22.5722 3.3053 23.851C1.72898 22.3438 0.755371 20.2429 0.755371 17.8679C0.755371 13.3462 4.46436 9.69238 9.00787 9.69238C9.37877 9.69238 9.74967 9.73806 10.0742 9.78373Z" fill="#00F7EF"/>
<path id="Vector_6" d="M17.492 2.06494H14.1076V19.6947C14.1076 21.75 12.4385 23.4399 10.3986 23.4399C8.77588 23.4399 7.43137 22.4351 6.92139 20.9736C7.5241 21.3846 8.2659 21.6587 9.05406 21.6587C11.094 21.6587 12.763 20.0144 12.763 17.9592V0.283691H17.2602V0.375038C17.2602 0.55773 17.2602 0.740422 17.3066 0.923114C17.3066 1.2885 17.3993 1.69956 17.492 2.06494Z" fill="#00F7EF"/>
<path id="Vector_7" d="M23.5192 6.44963V8.09386C21.6647 7.72848 20.0884 6.4953 19.2075 4.85107C20.3666 5.90155 21.8502 6.4953 23.5192 6.44963Z" fill="#00F7EF"/>
</g>
</svg>
