<?xml version="1.0" ?><svg height="512" preserveAspectRatio="xMidYMid" viewBox="0 0 512 512" width="512" xmlns="http://www.w3.org/2000/svg" xmlns:xlink="http://www.w3.org/1999/xlink"><defs><style>
      .cls-1 {
        fill: #fff;
      }

      .cls-2 {
        fill: #00bb0c;
      }

      .cls-2, .cls-3 {
        fill-rule: evenodd;
      }

      .cls-3 {
        fill: #000;
        opacity: 0.1;
      }
    </style></defs><circle class="cls-1" cx="256" cy="256" r="256"/><path class="cls-2" d="M256.000,512.000 C114.615,512.000 0.000,397.385 0.000,256.000 C0.000,114.615 114.615,0.000 256.000,0.000 C397.385,0.000 512.000,114.615 512.000,256.000 C512.000,397.385 397.385,512.000 256.000,512.000 ZM294.523,211.980 C284.617,162.625 232.912,125.000 170.617,125.000 C101.241,125.000 45.000,171.665 45.000,229.228 C45.000,261.633 62.823,290.584 90.779,309.701 C98.385,314.902 89.170,332.732 83.157,344.338 C79.580,351.241 89.493,349.463 89.493,349.463 C89.493,349.463 123.651,326.194 129.028,327.608 C142.139,331.057 156.041,333.456 170.617,333.456 C172.492,333.456 174.358,333.422 176.213,333.355 L176.538,333.270 C173.791,325.172 172.322,316.639 172.322,307.827 C172.322,255.296 224.491,212.711 288.845,212.711 C290.775,212.711 292.694,212.749 294.601,212.825 L294.523,211.980 ZM287.140,220.685 C228.123,220.685 180.280,260.210 180.280,308.966 C180.280,357.722 228.123,397.246 287.140,397.246 C301.705,397.246 315.589,394.839 328.241,390.480 C331.091,389.498 354.723,404.641 354.723,404.641 C354.723,404.641 364.905,412.276 360.802,400.123 C357.523,390.411 353.352,378.323 356.042,376.447 C379.256,360.253 394.000,336.032 394.000,308.966 C394.000,260.210 346.157,220.685 287.140,220.685 ZM324.655,294.727 C317.121,294.727 311.013,288.607 311.013,281.058 C311.013,273.508 317.121,267.388 324.655,267.388 C332.189,267.388 338.296,273.508 338.296,281.058 C338.296,288.607 332.189,294.727 324.655,294.727 ZM254.173,294.727 C246.639,294.727 240.531,288.607 240.531,281.058 C240.531,273.508 246.639,267.388 254.173,267.388 C261.707,267.388 267.814,273.508 267.814,281.058 C267.814,288.607 261.707,294.727 254.173,294.727 ZM213.248,212.711 C203.830,212.711 196.195,205.061 196.195,195.625 C196.195,186.188 203.830,178.538 213.248,178.538 C222.665,178.538 230.300,186.188 230.300,195.625 C230.300,205.061 222.665,212.711 213.248,212.711 ZM129.124,212.711 C119.706,212.711 112.072,205.061 112.072,195.625 C112.072,186.188 119.706,178.538 129.124,178.538 C138.541,178.538 146.176,186.188 146.176,195.625 C146.176,205.061 138.541,212.711 129.124,212.711 Z"/><path class="cls-3" d="M436.999,75.012 C536.959,174.972 536.959,337.039 436.999,436.999 C337.039,536.959 174.972,536.959 75.012,436.999 "/></svg>