<svg width="41" height="40" viewBox="0 0 41 40" fill="none" xmlns="http://www.w3.org/2000/svg">
<g id="Social Icons" clip-path="url(#clip0_474_3481)">
<path id="Vector" d="M37.7939 0H3.18484C2.3899 0 1.62751 0.311096 1.0654 0.864849C0.503291 1.4186 0.1875 2.16965 0.1875 2.95278V37.0472C0.1875 37.8303 0.503291 38.5814 1.0654 39.1352C1.62751 39.6889 2.3899 40 3.18484 40H37.7939C38.5888 40 39.3512 39.6889 39.9133 39.1352C40.4754 38.5814 40.7912 37.8303 40.7912 37.0472V2.95278C40.7912 2.16965 40.4754 1.4186 39.9133 0.864849C39.3512 0.311096 38.5888 0 37.7939 0ZM12.2897 34.075H6.18501V14.9722H12.2897V34.075ZM9.2331 12.325C8.54064 12.3212 7.86484 12.1153 7.29101 11.7335C6.71717 11.3516 6.27102 10.8109 6.00885 10.1795C5.74668 9.54808 5.68025 8.85432 5.81793 8.18576C5.95562 7.5172 6.29125 6.90379 6.78248 6.42297C7.27371 5.94214 7.89851 5.61544 8.57803 5.4841C9.25755 5.35276 9.96134 5.42266 10.6006 5.68498C11.2398 5.9473 11.7858 6.39028 12.1698 6.95802C12.5537 7.52576 12.7583 8.19282 12.7577 8.875C12.7643 9.33172 12.6774 9.78506 12.5023 10.208C12.3272 10.6309 12.0674 11.0148 11.7385 11.3368C11.4096 11.6587 11.0183 11.9121 10.5878 12.0819C10.1574 12.2517 9.69667 12.3344 9.2331 12.325ZM34.7909 34.0917H28.689V23.6556C28.689 20.5778 27.361 19.6278 25.6466 19.6278C23.8363 19.6278 22.0599 20.9722 22.0599 23.7333V34.0917H15.9553V14.9861H21.8259V17.6333H21.9048C22.4942 16.4583 24.5582 14.45 27.7078 14.45C31.114 14.45 34.7937 16.4417 34.7937 22.275L34.7909 34.0917Z" fill="#0A66C2"/>
</g>
<defs>
<clipPath id="clip0_474_3481">
<rect width="40.6037" height="40" fill="white" transform="translate(0.1875)"/>
</clipPath>
</defs>
</svg>
