<svg width="42" height="40" viewBox="0 0 42 40" fill="none" xmlns="http://www.w3.org/2000/svg">
<g id="social media logo">
<rect x="0.662598" width="40.6037" height="40" rx="20" fill="#FF0000"/>
<path id="Vector" d="M33.8844 13.5641C33.5758 12.4121 32.6622 11.5081 31.501 11.2001C29.3977 10.6401 20.9684 10.6401 20.9684 10.6401C20.9684 10.6401 12.535 10.6401 10.4358 11.2001C9.27451 11.5081 8.36093 12.4121 8.05234 13.5641C7.48389 15.6481 7.48389 20.0001 7.48389 20.0001C7.48389 20.0001 7.48389 24.3521 8.04828 26.4361C8.35687 27.5881 9.27045 28.4921 10.4317 28.8001C12.535 29.3601 20.9643 29.3601 20.9643 29.3601C20.9643 29.3601 29.3977 29.3601 31.4969 28.8001C32.6582 28.4921 33.5718 27.5881 33.8804 26.4361C34.4447 24.3521 34.4447 20.0001 34.4447 20.0001C34.4447 20.0001 34.4447 15.6481 33.8844 13.5641ZM18.2073 23.9481V16.0521L25.2521 20.0001L18.2073 23.9481Z" fill="white"/>
</g>
</svg>
