<svg width="41" height="23" viewBox="0 0 41 23" fill="none" xmlns="http://www.w3.org/2000/svg">
<g id="&#240;&#159;&#166;&#134; icon &#34;Northern Ireland&#34;">
<g id="Mask group">
<mask id="mask0_452_949" style="mask-type:luminance" maskUnits="userSpaceOnUse" x="0" y="0" width="41" height="23">
<g id="Group">
<path id="Vector" d="M0.59375 0.726685H40.1379V22.8588H0.59375V0.726685Z" fill="white"/>
</g>
</mask>
<g mask="url(#mask0_452_949)">
<g id="Group_2">
<path id="Vector_2" fill-rule="evenodd" clip-rule="evenodd" d="M0.59375 0.726685V22.8588H40.1379V0.726685H0.59375Z" fill="#2E42A5"/>
<g id="Mask group_2">
<mask id="mask1_452_949" style="mask-type:luminance" maskUnits="userSpaceOnUse" x="0" y="0" width="41" height="23">
<g id="Group_3">
<path id="Vector_3" fill-rule="evenodd" clip-rule="evenodd" d="M0.59375 0.726685V22.8588H40.1379V0.726685H0.59375Z" fill="white"/>
</g>
</mask>
<g mask="url(#mask1_452_949)">
<g id="Group_4">
<g id="Mask group_3">
<mask id="mask2_452_949" style="mask-type:luminance" maskUnits="userSpaceOnUse" x="0" y="0" width="41" height="23">
<g id="Group_5">
<path id="Vector_4" d="M0.59375 0.726685H40.1379V22.8588H0.59375V0.726685Z" fill="white"/>
</g>
</mask>
<g mask="url(#mask2_452_949)">
<g id="Group_6">
<path id="Vector_5" d="M-3.80957 21.2776L4.89223 24.0239L40.3352 3.71245L44.9252 -0.368605L35.6199 -1.2865L21.1636 7.46628L9.52767 13.3636L-3.80957 21.2776Z" fill="white"/>
<path id="Vector_6" d="M-2.61865 23.2017L1.81451 24.7954L43.2766 -0.747803H37.052L-2.61865 23.2017Z" fill="#F50100"/>
<path id="Vector_7" d="M44.5405 21.2776L35.8387 24.0239L0.395678 3.71245L-4.19434 -0.368605L5.11101 -1.2865L19.5674 7.46628L31.2033 13.3636L44.5405 21.2776Z" fill="white"/>
<path id="Vector_8" d="M44.2439 22.6585L39.8107 24.2522L22.1557 13.3159L16.9213 12.0939L-4.63574 -0.354614H1.58895L23.134 11.7985L28.8567 13.2637L44.2439 22.6585Z" fill="#F50100"/>
<path id="Vector_9" fill-rule="evenodd" clip-rule="evenodd" d="M25.0338 -1.11768H15.697V8.10406H-1.84424V15.4814H15.697V24.7032H25.0338V15.4814H42.6431V8.10406H25.0338V-1.11768Z" fill="#F50100"/>
<g id="Mask group_4">
<mask id="mask3_452_949" style="mask-type:luminance" maskUnits="userSpaceOnUse" x="-2" y="-2" width="45" height="27">
<g id="Group_7">
<path id="Vector_10" fill-rule="evenodd" clip-rule="evenodd" d="M25.0338 -1.11768H15.697V8.10406H-1.84424V15.4814H15.697V24.7032H25.0338V15.4814H42.6431V8.10406H25.0338V-1.11768Z" fill="white"/>
</g>
</mask>
<g mask="url(#mask3_452_949)">
<path id="Vector_11" d="M15.6973 -1.11769V-2.96204H13.2258V-1.11769H15.6973ZM25.034 -1.11769H27.5055V-2.96204H25.034V-1.11769ZM15.6973 8.10404V9.94839H18.1688V8.10404H15.6973ZM-1.84392 8.10404V6.25969H-4.31543V8.10404H-1.84392ZM-1.84392 15.4814H-4.31543V17.3258H-1.84392V15.4814ZM15.6973 15.4814H18.1688V13.6371H15.6973V15.4814ZM15.6973 24.7032H13.2258V26.5475H15.6973V24.7032ZM25.034 24.7032V26.5475H27.5055V24.7032H25.034ZM25.034 15.4814V13.6371H22.5625V15.4814H25.034ZM42.6432 15.4814V17.3258H45.1147V15.4814H42.6432ZM42.6432 8.10404H45.1147V6.25969H42.6432V8.10404ZM25.034 8.10404H22.5625V9.94839H25.034V8.10404ZM15.6973 0.726656H25.034V-2.96204H15.6973V0.726656ZM18.1688 8.10404V-1.11769H13.2258V8.10404H18.1688ZM-1.84392 9.94839H15.6973V6.25969H-1.84392V9.94839ZM0.627579 15.4814V8.10404H-4.31543V15.4814H0.627579ZM15.6973 13.6371H-1.84392V17.3258H15.6973V13.6371ZM18.1688 24.7032V15.4814H13.2258V24.7032H18.1688ZM25.034 22.8588H15.6973V26.5475H25.034V22.8588ZM22.5625 15.4814V24.7032H27.5055V15.4814H22.5625ZM42.6432 13.6371H25.034V17.3258H42.6432V13.6371ZM40.1717 8.10404V15.4814H45.1147V8.10404H40.1717ZM25.034 9.94839H42.6432V6.25969H25.034V9.94839ZM22.5625 -1.11769V8.10404H27.5055V-1.11769H22.5625Z" fill="white"/>
</g>
</g>
</g>
</g>
</g>
</g>
</g>
</g>
</g>
</g>
</g>
</g>
</svg>
