<svg width="40" height="23" viewBox="0 0 40 23" fill="none" xmlns="http://www.w3.org/2000/svg">
<g id="&#240;&#159;&#166;&#134; icon &#34;China&#34;">
<g id="Mask group">
<mask id="mask0_452_972" style="mask-type:luminance" maskUnits="userSpaceOnUse" x="0" y="0" width="40" height="23">
<g id="Group">
<path id="Vector" d="M0.443359 0.726685H39.9875V22.8588H0.443359V0.726685Z" fill="white"/>
</g>
</mask>
<g mask="url(#mask0_452_972)">
<g id="Group_2">
<path id="Vector_2" fill-rule="evenodd" clip-rule="evenodd" d="M0.443359 0.726685H39.9875V22.8588H0.443359V0.726685Z" fill="#E31D1C"/>
<g id="Group_3">
<path id="Vector_3" fill-rule="evenodd" clip-rule="evenodd" d="M18.9991 4.92096L17.7509 5.48332L18.0356 4.38591L16.9961 3.5646L18.4036 3.52019L18.9991 2.49548L19.5947 3.52019H20.9999L19.9627 4.38591L20.275 5.48332L18.9991 4.92096Z" fill="#FECA00"/>
<path id="Vector_4" fill-rule="evenodd" clip-rule="evenodd" d="M9.11546 9.58608L5.55543 11.0163L6.36745 8.22536L3.40283 6.1366L7.4171 6.02366L9.11546 3.4176L10.8138 6.02366H14.8213L11.8635 8.22536L12.7539 11.0163L9.11546 9.58608Z" fill="#FECA00"/>
<path id="Vector_5" fill-rule="evenodd" clip-rule="evenodd" d="M21.4708 8.60968L20.2226 9.17204L20.5073 8.07463L19.4678 7.25333L20.8753 7.20891L21.4708 6.1842L22.0665 7.20891H23.4717L22.4345 8.07463L22.7468 9.17204L21.4708 8.60968Z" fill="#FECA00"/>
<path id="Vector_6" fill-rule="evenodd" clip-rule="evenodd" d="M20.235 12.2984L18.9867 12.8608L19.2715 11.7634L18.2319 10.942L19.6395 10.8977L20.235 9.87292L20.8306 10.8977H22.2358L21.1987 11.7634L21.5109 12.8608L20.235 12.2984Z" fill="#FECA00"/>
<path id="Vector_7" fill-rule="evenodd" clip-rule="evenodd" d="M16.5275 15.0649L15.2792 15.6272L15.5639 14.5299L14.5244 13.7085L15.932 13.6641L16.5275 12.6394L17.1231 13.6641H18.5283L17.4911 14.5299L17.8034 15.6272L16.5275 15.0649Z" fill="#FECA00"/>
</g>
</g>
</g>
</g>
</g>
</svg>
